<svg width="9" height="9" viewBox="0 0 9 9" fill="none" xmlns="http://www.w3.org/2000/svg">
<path d="M4.58217 0.754251C4.71603 0.647497 4.90593 0.647497 5.0398 0.754251L5.33592 0.990402C5.42891 1.06455 5.55206 1.08905 5.66634 1.05612L6.03029 0.951272C6.19482 0.903872 6.37027 0.976544 6.45309 1.1264L6.6363 1.4579C6.69383 1.56199 6.79823 1.63174 6.91641 1.64506L7.29279 1.68747C7.46293 1.70664 7.59721 1.84092 7.61638 2.01106L7.65879 2.38744C7.67211 2.50562 7.74187 2.61002 7.84595 2.66755L8.17745 2.85076C8.32731 2.93359 8.39998 3.10903 8.35258 3.27356L8.24773 3.63751C8.2148 3.7518 8.2393 3.87494 8.31345 3.96793L8.5496 4.26405C8.65635 4.39792 8.65635 4.58782 8.5496 4.72168L8.31345 5.01781C8.2393 5.11079 8.2148 5.23394 8.24773 5.34822L8.35258 5.71218C8.39998 5.87671 8.32731 6.05215 8.17745 6.13497L7.84595 6.31819C7.74187 6.37572 7.67211 6.48012 7.65879 6.5983L7.61638 6.97467C7.59721 7.14482 7.46293 7.2791 7.29279 7.29827L6.91641 7.34068C6.79823 7.35399 6.69383 7.42375 6.6363 7.52784L6.45309 7.85934C6.37027 8.00919 6.19482 8.08186 6.03029 8.03446L5.66634 7.92961C5.55206 7.89669 5.42891 7.92118 5.33592 7.99534L5.0398 8.23149C4.90593 8.33824 4.71603 8.33824 4.58217 8.23149L4.28604 7.99534C4.19306 7.92118 4.06991 7.89669 3.95563 7.92961L3.59167 8.03446C3.42715 8.08186 3.2517 8.00919 3.16888 7.85934L2.98566 7.52784C2.92814 7.42375 2.82374 7.35399 2.70556 7.34068L2.32918 7.29827C2.15903 7.2791 2.02476 7.14482 2.00558 6.97467L1.96318 6.5983C1.94986 6.48012 1.8801 6.37572 1.77601 6.31819L1.44452 6.13497C1.29466 6.05215 1.22199 5.87671 1.26939 5.71218L1.37424 5.34822C1.40716 5.23394 1.38267 5.11079 1.30852 5.01781L1.07237 4.72168C0.965612 4.58782 0.965612 4.39792 1.07237 4.26405L1.30852 3.96793C1.38267 3.87494 1.40716 3.7518 1.37424 3.63751L1.26939 3.27356C1.22199 3.10903 1.29466 2.93359 1.44452 2.85076L1.77601 2.66755C1.8801 2.61002 1.94986 2.50562 1.96318 2.38744L2.00558 2.01106C2.02476 1.84092 2.15903 1.70664 2.32918 1.68747L2.70555 1.64506C2.82374 1.63174 2.92814 1.56199 2.98566 1.4579L3.16888 1.1264C3.2517 0.976544 3.42715 0.903872 3.59167 0.951272L3.95563 1.05612C4.06991 1.08905 4.19306 1.06455 4.28604 0.990402L4.58217 0.754251Z" fill="#4B0082"/>
<path d="M3.23428 4.42312L4.03157 5.46481L6.24937 3.74334" stroke="white" stroke-width="0.435677" stroke-linecap="round" stroke-linejoin="round"/>
</svg>
