<svg width="26" height="23" viewBox="0 0 26 23" fill="none" xmlns="http://www.w3.org/2000/svg">
<path d="M13.4696 18.7909C12.7136 18.7792 11.9848 18.5074 11.4057 18.0213L7.59282 14.6631C6.99283 14.1025 6.07534 14.0581 5.424 14.5582L0.00201321 18.5459V21.1345C-0.0369549 21.8289 0.49447 22.4234 1.18887 22.4624C1.22462 22.4644 1.26051 22.4648 1.29633 22.4638H20.5008C21.2703 22.4638 22.0399 21.9041 22.0399 21.1345V14.3483L15.1487 18.3361C14.6421 18.6406 14.0607 18.7981 13.4696 18.7909Z" fill="#5D5D5D"/>
<path d="M13.1903 12.0041C14.0404 12.0041 14.7295 11.315 14.7295 10.465C14.7295 9.61489 14.0404 8.92578 13.1903 8.92578C12.3402 8.92578 11.6511 9.61489 11.6511 10.465C11.6511 11.315 12.3402 12.0041 13.1903 12.0041Z" fill="#5D5D5D"/>
<path d="M25.6785 2.73412C25.4552 2.42988 25.1103 2.23825 24.734 2.20939L5.66948 0.00562036C5.29781 -0.0255139 4.92688 0.0733793 4.62009 0.285494C4.34838 0.521445 4.16365 0.841693 4.09536 1.19502L3.78053 3.92352H20.5014C22.0955 3.95967 23.3846 5.2333 23.4398 6.82691V19.1751C23.4398 19.1051 23.7546 19.0352 23.8946 18.8952C24.1842 18.6678 24.3521 18.319 24.3493 17.9507L25.9933 3.74856C26.0297 3.38171 25.9161 3.0158 25.6785 2.73412Z" fill="#5D5D5D"/>
<path d="M20.5012 5.32227H1.29673C0.527148 5.32227 0.00241852 6.05683 0.00241852 6.82642V16.7959L4.61986 13.4378C5.79199 12.5683 7.41351 12.6414 8.50274 13.6127L12.3506 16.9708C12.9308 17.4634 13.7596 17.5337 14.4144 17.1457L22.0403 12.7032V6.82642C21.9874 6.00521 21.3234 5.35635 20.5012 5.32227ZM13.1902 13.4028C11.5674 13.4028 10.2518 12.0872 10.2518 10.4644C10.2518 8.84158 11.5673 7.52597 13.1902 7.52597C14.813 7.52597 16.1286 8.84151 16.1286 10.4644C16.1286 12.0872 14.813 13.4028 13.1902 13.4028Z" fill="#5D5D5D"/>
</svg>
