<svg width="20" height="22" viewBox="0 0 20 22" fill="none" xmlns="http://www.w3.org/2000/svg">
<path d="M12.8446 21.9006C12.6418 21.9277 12.4297 21.9548 12.2268 21.9729C12.0148 21.9819 11.8119 22 11.5998 22C11.1849 22 10.7607 21.991 10.3366 21.9548C9.48824 21.8645 8.64915 21.6747 7.82849 21.3947C6.17796 20.8435 4.65652 19.8678 3.40249 18.6029C2.77547 17.9704 2.22222 17.2567 1.74274 16.4887C1.27248 15.7207 0.885201 14.8895 0.599355 14.0312C0.304288 13.1639 0.129092 12.2604 0.0461042 11.3569C0.0276625 11.131 0.0092207 10.9051 0.0092207 10.6612C0.0092207 10.5437 0 10.4263 0 10.3088L0.0092207 9.94743C0.0276624 9.46858 0.0829877 8.98973 0.175196 8.51992C0.350392 7.57125 0.673121 6.64969 1.11572 5.78234C1.33702 5.34867 1.59521 4.93306 1.88105 4.53552C2.1669 4.13799 2.47118 3.74949 2.81236 3.39713C4.1586 1.95154 5.94744 0.894456 7.90226 0.370431C8.39096 0.243943 8.88889 0.135524 9.38682 0.0813143C9.51591 0.0632445 9.63578 0.0542094 9.76487 0.0451745C9.89396 0.0361396 10.0138 0.0180699 10.1429 0.0180699C10.3919 0.00903498 10.6408 0 10.9175 0C11.4523 0.00903491 11.9779 0.0632445 12.5035 0.162628C13.029 0.262012 13.5454 0.406571 14.0433 0.596304C15.0484 0.97577 15.9797 1.5269 16.7819 2.21355C17.5934 2.90021 18.2849 3.72238 18.8105 4.63491C19.3361 5.55647 19.6957 6.55934 19.8709 7.59836C19.9539 8.11335 20 8.63737 20 9.1614C19.9908 9.44148 19.9723 9.71253 19.9539 9.99261C19.9078 10.2637 19.8709 10.5437 19.8064 10.8148C19.2992 12.9922 17.8054 14.8986 15.8045 15.9195C14.8087 16.4255 13.7022 16.7236 12.5864 16.7778C12.3098 16.7869 12.0424 16.8049 11.7381 16.7778C11.5906 16.7688 11.4431 16.7598 11.2955 16.7417C11.148 16.7146 11.0005 16.6965 10.8621 16.6694C10.7146 16.6513 10.5763 16.6062 10.4288 16.57C10.2905 16.5248 10.1429 16.4977 10.0046 16.4435C9.72799 16.3351 9.45136 16.2357 9.19318 16.1002C8.142 15.5852 7.2568 14.7811 6.639 13.8234C6.50069 13.5795 6.34394 13.3355 6.23329 13.0735C6.17796 12.947 6.11342 12.8205 6.06731 12.685L5.94744 12.2604C5.90134 12.1248 5.87367 11.9893 5.83679 11.8538C5.80913 11.7183 5.77225 11.5828 5.7538 11.4382C5.71692 11.1581 5.68004 10.8871 5.68004 10.607V10.3992C5.68004 10.3269 5.68004 10.2637 5.68004 10.1823C5.68926 10.0378 5.7077 9.88419 5.71692 9.73963C5.76302 9.44148 5.81835 9.15236 5.91978 8.87228C6.1042 8.30308 6.38082 7.77906 6.73121 7.30924C7.44122 6.36961 8.46473 5.69199 9.58967 5.40287C9.72799 5.37577 9.87552 5.33963 10.0138 5.31253C10.1521 5.28542 10.2997 5.27639 10.438 5.25832C10.5763 5.24025 10.7238 5.24025 10.8621 5.24025C11.0005 5.24025 11.148 5.24025 11.2955 5.25832C11.9041 5.30349 12.4942 5.48419 13.0198 5.77331C13.5454 6.06242 13.9972 6.45092 14.3476 6.9117C14.698 7.37248 14.947 7.89651 15.0669 8.44764C15.1314 8.71869 15.1591 8.99877 15.1591 9.27885C15.1591 9.41437 15.1591 9.5499 15.1406 9.70349C15.1314 9.77577 15.1222 9.84805 15.113 9.92033L15.0669 10.1372C15.0484 10.2094 15.03 10.2817 15.0115 10.345C14.9931 10.4172 14.9654 10.4805 14.9378 10.5528C14.8824 10.6883 14.8271 10.8238 14.7533 10.9413C14.615 11.1943 14.4398 11.4201 14.237 11.6279C13.8313 12.0345 13.3333 12.3326 12.7985 12.4772C12.2637 12.6308 11.7105 12.6398 11.1572 12.4862C10.6132 12.3236 10.1429 11.9893 9.83864 11.5647C9.53435 11.14 9.36837 10.616 9.39603 10.1191C9.40526 9.87515 9.4698 9.61314 9.58045 9.38727C9.6911 9.1614 9.84786 8.96263 10.0323 8.80904C10.2167 8.65544 10.4288 8.53799 10.6593 8.47474C10.8806 8.4115 11.1203 8.39343 11.3416 8.42053H11.3601C11.4338 8.42957 11.4799 8.49281 11.4707 8.56509C11.4615 8.62834 11.4062 8.67351 11.3416 8.67351C10.9728 8.67351 10.604 8.83614 10.355 9.09815C10.106 9.36016 9.96773 9.7306 9.99539 10.092C10.0138 10.4624 10.1614 10.8148 10.4011 11.0949C10.6408 11.3749 10.982 11.5647 11.3416 11.646C11.7012 11.7183 12.0977 11.6731 12.4481 11.5466C12.8077 11.4201 13.112 11.1943 13.361 10.9142C13.4716 10.7696 13.5823 10.616 13.6561 10.4444C13.7022 10.363 13.7206 10.2727 13.7575 10.1914C13.7667 10.1462 13.7759 10.101 13.7944 10.0559C13.8036 10.0107 13.822 9.9655 13.822 9.92033C13.8866 9.55893 13.8497 9.17947 13.7391 8.81807C13.6284 8.46571 13.4532 8.12238 13.2135 7.8423C12.9645 7.56222 12.6602 7.32731 12.3283 7.16468C11.9871 7.00205 11.6183 6.9117 11.2402 6.89363C10.8621 6.8846 10.4749 6.92977 10.106 7.04723C9.37759 7.2731 8.73213 7.74292 8.29876 8.36633C8.08668 8.67351 7.9207 9.02587 7.82849 9.38727C7.77317 9.56797 7.74551 9.7577 7.72706 9.9384L7.71784 10.2185C7.70862 10.3088 7.72706 10.4082 7.72706 10.4986C7.76395 11.2575 8.03135 11.9984 8.45551 12.6308C8.89811 13.2542 9.48824 13.7692 10.189 14.0945C10.8806 14.4287 11.6644 14.5462 12.4389 14.483C13.2135 14.4287 13.9788 14.2119 14.6611 13.8415C15.3435 13.471 15.9428 12.9561 16.4039 12.3507C16.8649 11.7454 17.1969 11.0316 17.3628 10.2908C17.3813 10.2456 17.3813 10.2004 17.3905 10.1552L17.4089 10.0107L17.455 9.7306C17.4735 9.54086 17.4735 9.35113 17.4827 9.1614C17.4827 8.78193 17.4458 8.39343 17.3813 8.01396C17.2522 7.25503 16.9756 6.5232 16.5975 5.86365C16.2195 5.19507 15.7123 4.58973 15.1222 4.08378C14.8271 3.8308 14.5136 3.60493 14.1817 3.39713C13.8497 3.19836 13.4993 3.02669 13.1305 2.88214C11.6736 2.3039 10.0231 2.29487 8.49239 2.6653C6.96173 3.04476 5.54172 3.83984 4.426 4.95113C3.3195 6.05339 2.52651 7.46283 2.1669 8.97166C1.98248 9.7306 1.91793 10.5076 1.9456 11.2846C1.97326 12.0616 2.08391 12.8386 2.28677 13.5975C2.69249 15.1064 3.43015 16.5339 4.45367 17.7355C5.46796 18.9372 6.74965 19.931 8.19733 20.6086C9.645 21.2862 11.2402 21.6386 12.8446 21.6567C12.9184 21.6567 12.9737 21.7109 12.9737 21.7832C12.9737 21.8464 12.9276 21.9006 12.8631 21.9097L12.8446 21.9006Z" fill="#4B0082"/>
</svg>
