<svg width="14" height="15" viewBox="0 0 14 15" fill="none" xmlns="http://www.w3.org/2000/svg">
<path d="M9.06063 14.4002C8.93294 14.4176 8.79944 14.4351 8.67175 14.4467C8.53826 14.4525 8.41057 14.4641 8.27707 14.4641C8.01589 14.4641 7.7489 14.4583 7.48191 14.4351C6.94793 14.377 6.41976 14.2551 5.90319 14.0752C4.86425 13.7212 3.90657 13.0943 3.11721 12.2817C2.72253 11.8754 2.37429 11.4169 2.07247 10.9236C1.77646 10.4302 1.53269 9.89624 1.35276 9.34485C1.16703 8.78765 1.05675 8.20724 1.00451 7.62683C0.992907 7.48173 0.981298 7.33662 0.981298 7.17991C0.981298 7.10446 0.975494 7.02901 0.975494 6.95355L0.981298 6.72139C0.992907 6.41377 1.02773 6.10615 1.08577 5.80434C1.19605 5.19491 1.39919 4.60289 1.67779 4.04569C1.81709 3.76709 1.97961 3.5001 2.15953 3.24472C2.33946 2.98934 2.531 2.73976 2.74575 2.5134C3.59315 1.58474 4.71915 0.905662 5.94962 0.569024C6.25724 0.487766 6.57066 0.418117 6.88409 0.383292C6.96534 0.371684 7.0408 0.365879 7.12205 0.360075C7.20331 0.354271 7.27877 0.342663 7.36002 0.342663C7.51673 0.336859 7.67345 0.331055 7.84757 0.331055C8.18421 0.336859 8.51504 0.371684 8.84588 0.435529C9.17671 0.499374 9.50174 0.59224 9.81516 0.714127C10.4478 0.9579 11.034 1.31195 11.539 1.75306C12.0497 2.19418 12.4851 2.72235 12.8159 3.30857C13.1467 3.90059 13.3731 4.54484 13.4834 5.21232C13.5356 5.54315 13.5646 5.87979 13.5646 6.21643C13.5588 6.39636 13.5472 6.57048 13.5356 6.75041C13.5066 6.92453 13.4834 7.10446 13.4427 7.27858C13.1235 8.67738 12.1832 9.90204 10.9238 10.5579C10.2969 10.8829 9.60041 11.0745 8.89811 11.1093C8.72399 11.1151 8.55567 11.1267 8.36414 11.1093C8.27127 11.1035 8.1784 11.0977 8.08554 11.0861C7.99267 11.0687 7.89981 11.0571 7.81274 11.0397C7.71988 11.028 7.63282 10.999 7.53995 10.9758C7.45289 10.9468 7.36002 10.9294 7.27296 10.8945C7.09884 10.8249 6.92471 10.7611 6.7622 10.674C6.10053 10.3432 5.54333 9.82659 5.15446 9.21136C5.0674 9.05464 4.96873 8.89793 4.89908 8.72961C4.86425 8.64836 4.82362 8.5671 4.7946 8.48004L4.71915 8.20724C4.69013 8.12018 4.67272 8.03312 4.6495 7.94606C4.63209 7.859 4.60887 7.77193 4.59726 7.67907C4.57405 7.49914 4.55083 7.32502 4.55083 7.14509V7.01159C4.55083 6.96516 4.55083 6.92453 4.55083 6.8723C4.55663 6.77943 4.56824 6.68076 4.57405 6.58789C4.60307 6.39636 4.63789 6.21063 4.70174 6.0307C4.81782 5.66504 4.99194 5.3284 5.2125 5.02659C5.65942 4.42296 6.30367 3.98765 7.01178 3.80192C7.09884 3.7845 7.1917 3.76129 7.27877 3.74388C7.36583 3.72646 7.45869 3.72066 7.54575 3.70905C7.63282 3.69744 7.72568 3.69744 7.81274 3.69744C7.89981 3.69744 7.99267 3.69744 8.08554 3.70905C8.46861 3.73807 8.84007 3.85415 9.17091 4.03989C9.50174 4.22562 9.78614 4.47519 10.0067 4.7712C10.2273 5.06721 10.384 5.40385 10.4594 5.75791C10.5 5.93203 10.5175 6.11196 10.5175 6.29188C10.5175 6.37895 10.5175 6.46601 10.5059 6.56468C10.5001 6.61111 10.4942 6.65754 10.4884 6.70398L10.4594 6.84327C10.4478 6.88971 10.4362 6.93614 10.4246 6.97677C10.413 7.0232 10.3956 7.06383 10.3782 7.11026C10.3433 7.19733 10.3085 7.28439 10.2621 7.35984C10.175 7.52236 10.0647 7.66746 9.93705 7.80095C9.68167 8.06214 9.36825 8.25367 9.03161 8.34654C8.69497 8.44521 8.34672 8.45102 7.99848 8.35235C7.65603 8.24787 7.36002 8.03312 7.16849 7.76033C6.97695 7.48753 6.87248 7.15089 6.88989 6.83167C6.89569 6.67496 6.93632 6.50664 7.00597 6.36153C7.07562 6.21643 7.17429 6.08874 7.29037 5.99007C7.40646 5.8914 7.53995 5.81595 7.68505 5.77532C7.82435 5.73469 7.97526 5.72308 8.11456 5.74049H8.12617C8.1726 5.7463 8.20162 5.78693 8.19582 5.83336C8.19001 5.87399 8.15519 5.90301 8.11456 5.90301C7.88239 5.90301 7.65023 6.00748 7.49352 6.1758C7.33681 6.34412 7.24974 6.58209 7.26716 6.81425C7.27877 7.05222 7.37163 7.27858 7.52254 7.45851C7.67345 7.63844 7.8882 7.76032 8.11456 7.81256C8.34092 7.85899 8.5905 7.82998 8.81105 7.74872C9.03741 7.66746 9.22895 7.52236 9.38566 7.34243C9.45531 7.24956 9.52496 7.15089 9.57139 7.04061C9.60041 6.98838 9.61202 6.93034 9.63524 6.8781C9.64104 6.84908 9.64685 6.82006 9.65845 6.79104C9.66426 6.76202 9.67587 6.733 9.67587 6.70398C9.71649 6.47181 9.69328 6.22804 9.62363 5.99587C9.55398 5.76951 9.4437 5.54896 9.29279 5.36903C9.13608 5.1891 8.94455 5.03819 8.7356 4.93372C8.52085 4.82925 8.28868 4.7712 8.05071 4.7596C7.81274 4.75379 7.56897 4.78281 7.33681 4.85827C6.87828 5.00337 6.47199 5.30518 6.1992 5.70567C6.0657 5.90301 5.96123 6.12937 5.90319 6.36153C5.86837 6.47761 5.85095 6.5995 5.83934 6.71558L5.83354 6.89551C5.82774 6.95355 5.83934 7.0174 5.83934 7.07544C5.86256 7.56299 6.03088 8.03892 6.29787 8.44521C6.57647 8.8457 6.94793 9.17653 7.38904 9.38548C7.82435 9.60023 8.3177 9.67568 8.80525 9.63506C9.29279 9.60023 9.77454 9.46093 10.204 9.22296C10.6335 8.98499 11.0108 8.65416 11.301 8.26528C11.5912 7.87641 11.8002 7.41788 11.9046 6.94194C11.9163 6.91292 11.9163 6.8839 11.9221 6.85488L11.9337 6.76202L11.9627 6.58209C11.9743 6.4602 11.9743 6.33832 11.9801 6.21643C11.9801 5.97266 11.9569 5.72308 11.9163 5.47931C11.835 4.99176 11.6609 4.52163 11.4229 4.09793C11.1849 3.66842 10.8657 3.27955 10.4942 2.95452C10.3085 2.792 10.1112 2.6469 9.90223 2.5134C9.69328 2.38571 9.47272 2.27543 9.24056 2.18257C8.32351 1.8111 7.28457 1.8053 6.32109 2.04327C5.3576 2.28704 4.46377 2.7978 3.76147 3.51171C3.06498 4.21981 2.56582 5.12526 2.33946 6.09454C2.22338 6.58209 2.18275 7.08124 2.20016 7.5804C2.21758 8.07955 2.28723 8.57871 2.41492 9.06625C2.6703 10.0355 3.13463 10.9526 3.77888 11.7245C4.41734 12.4965 5.22411 13.1349 6.13535 13.5702C7.0466 14.0056 8.05071 14.2319 9.06063 14.2435C9.10706 14.2435 9.14189 14.2783 9.14189 14.3248C9.14189 14.3654 9.11287 14.4002 9.07224 14.406L9.06063 14.4002Z" fill="white"/>
</svg>
